<svg width="68" height="85" viewBox="0 0 68 85" fill="none" xmlns="http://www.w3.org/2000/svg">
<path d="M7.32839 47.6163C7.19192 47.1462 6.99307 46.6964 6.73716 46.279C6.48353 45.798 6.36862 45.2561 6.40525 44.7137C6.40525 44.3301 6.57121 44.0606 6.1978 43.8221C5.96945 43.7098 5.72945 43.6229 5.48211 43.563L1.6236 42.3604C2.10941 44.1054 3.07624 45.6788 4.41376 46.901C5.24243 48.2483 6.18639 49.5212 7.23504 50.7055C7.06878 50.3403 6.97709 49.9456 6.96535 49.5445C6.94461 48.9225 7.42174 48.2694 7.32839 47.6163Z" fill="white"/>
<path d="M1.45763 41.075C2.972 41.5415 4.49674 41.9976 6.00073 42.4848C6.53381 42.6024 7.01428 42.8898 7.36988 43.3038C7.76403 43.8636 7.53584 44.3405 7.56696 45.0143C7.56696 46.051 8.50048 46.7559 8.51085 47.7822C8.51085 48.4042 8.1167 48.9432 8.13744 49.5549C8.22235 50.1182 8.45097 50.6501 8.80127 51.0995C10.136 52.9236 12.0239 54.2688 14.1845 54.9351C16.7788 55.7526 19.4822 56.1721 22.2024 56.1791C22.7461 56.2229 23.2923 56.1313 23.7919 55.9124C24.2915 55.6935 24.729 55.3541 25.0651 54.9248C25.5599 54.2568 25.9386 53.5103 26.1854 52.7167C24.8294 51.9329 23.6723 50.8474 22.804 49.5445C21.6008 47.8858 20.4909 46.1754 19.3396 44.4856C18.8633 43.599 18.2664 42.7827 17.5659 42.0598C16.7825 41.5735 15.9126 41.2427 15.0039 41.0854C14.1175 40.8672 13.2161 40.7147 12.3071 40.6292C11.5499 40.5567 10.7824 40.6292 10.0356 40.4426C9.45916 40.3602 8.9319 40.0726 8.55076 39.6326C8.16962 39.1926 7.96023 38.6299 7.96111 38.048C7.96111 36.9076 8.61457 35.8606 8.64569 34.7306C8.64569 34.0464 8.21005 33.8806 7.83664 33.3726C7.34914 32.7092 7.71217 32.025 7.72255 31.2993C7.63663 30.3758 7.49461 29.4584 7.29728 28.5522C7.20392 27.785 7.17281 26.9972 7.15206 26.2197C7.15206 23.1097 7.50473 19.7613 5.68956 17.0452C5.2643 16.4025 6.3119 15.8012 6.7268 16.444C8.70792 19.3985 8.28265 23.0475 8.35526 26.4166C8.36209 27.2706 8.43142 28.1229 8.56271 28.9668C8.74168 29.7338 8.85961 30.5137 8.91537 31.2993C8.91537 31.7451 8.63532 32.4293 8.91537 32.7817C9.19542 33.1342 9.351 33.1653 9.51696 33.4245C9.76508 33.821 9.88463 34.2844 9.85925 34.7514C9.85925 35.8502 9.24728 36.8247 9.18505 37.9443C9.09169 39.5304 11.0106 39.3438 12.1412 39.4371C13.9171 39.5635 15.6647 39.9512 17.3274 40.5878C19.0284 41.2616 19.8478 42.9928 20.8228 44.4234C21.7978 45.854 22.8351 47.4401 23.9346 48.9018C24.7727 50.211 25.9575 51.2624 27.3574 51.9392C27.4716 52.0053 27.5608 52.107 27.6114 52.2288C27.662 52.3505 27.6712 52.4855 27.6375 52.613C26.9737 54.8522 25.646 57.195 23.0218 57.4024C21.5606 57.4486 20.0983 57.3549 18.655 57.1225C17.3043 56.982 15.9682 56.7254 14.6617 56.3553C14.2157 56.2206 13.7696 56.0651 13.334 55.8992C15.2901 57.135 17.3774 58.1503 19.5574 58.9263C27.2848 61.7149 36.983 60.3776 43.9429 56.0962C49.8924 52.3776 54.5166 46.8781 57.1572 40.3804H57.0224L56.203 40.2768C55.9502 40.2602 55.7061 40.1778 55.4951 40.0377C55.284 39.8977 55.1133 39.7049 54.9998 39.4785C54.5907 38.9437 54.302 38.3269 54.1534 37.6703C54.0048 37.0137 53.9999 36.3327 54.1389 35.674C54.8235 33.5281 57.1365 32.6677 58.9932 31.7451C59.1079 31.6854 59.2387 31.6636 59.3666 31.6829C59.7109 28.3882 59.4757 25.0586 58.6716 21.845C58.5653 19.4811 57.6749 17.2199 56.1408 15.4177C56.1408 15.3348 56.0682 15.2622 56.0267 15.1896C55.6429 14.5158 55.228 13.8938 54.7924 13.2718C54.228 12.475 53.6112 11.7165 52.9461 11.0015C48.4235 6.36589 42.364 3.53872 35.9043 3.05035C35.9043 3.12291 35.9665 3.15401 35.9769 3.22658C35.9723 3.25751 35.9723 3.28894 35.9769 3.31988C35.1532 3.08936 34.3144 2.91616 33.4668 2.80155C32.0563 2.6042 30.6198 2.71383 29.2556 3.12291C25.3149 3.49377 21.4812 4.61263 17.9601 6.41949C14.5716 7.71469 11.491 9.70255 8.91537 12.2559C4.47838 16.729 1.57343 22.4922 0.617476 28.718C0.297976 29.7882 0.130379 30.8979 0.119598 32.0146C0.126319 32.6426 0.17483 33.2694 0.264811 33.8909C0.202699 34.546 0.202699 35.2055 0.264811 35.8606C0.376352 37.2513 0.683641 38.6194 1.17758 39.9243C1.25019 40.3079 1.31242 40.7018 1.37465 41.075C1.40227 41.0728 1.43002 41.0728 1.45763 41.075ZM43.2998 27.5984C43.738 28.534 44.0853 29.5095 44.337 30.5114C44.6764 31.6299 44.9432 32.7692 45.1357 33.922C45.4834 35.8482 45.4517 37.8237 45.0423 39.7377C44.6482 41.386 43.7976 43.6874 41.9825 44.2472C40.1673 44.807 38.4248 43.4489 37.3564 42.1013C36.7987 41.3229 36.1702 40.5976 35.479 39.9347C34.7305 39.3703 33.911 38.9067 33.0415 38.5559C31.496 37.8302 29.3178 36.8973 28.9963 35.0209C28.928 34.0544 29.0586 33.0842 29.38 32.1701C29.576 31.3903 29.8687 30.6381 30.2513 29.9309C30.6272 29.2143 31.1898 28.6126 31.8798 28.1893C32.72 27.7228 33.7157 27.6814 34.587 27.2771C36.1636 26.541 37.6987 25.2659 39.5035 25.4836C40.0594 25.4378 40.619 25.4976 41.1527 25.6599C41.6276 25.8286 42.0646 26.0895 42.4384 26.4275C42.8122 26.7656 43.1155 27.174 43.3309 27.6295L43.2998 27.5984ZM14.7446 8.65868C14.672 7.90191 15.8856 7.90191 15.9582 8.65868C16.176 10.9186 15.1284 13.0748 15.3255 15.314C15.6025 16.4942 15.9879 17.6463 16.4768 18.7557C16.7449 19.8642 16.9047 20.996 16.954 22.1352C16.9894 23.1567 17.1144 24.173 17.3274 25.1726C17.4311 25.5873 17.597 26.116 18.126 26.0849C18.5312 26.0282 18.9261 25.913 19.2981 25.7428C20.9106 25.1043 22.2172 23.8727 22.9492 22.3011C23.6649 20.7357 23.7167 18.6313 25.5734 17.8849C25.9851 17.7566 26.419 17.7153 26.8475 17.7635C27.276 17.8116 27.6899 17.9483 28.0628 18.1648C28.4618 18.3486 28.9005 18.4296 29.3389 18.4007C29.7773 18.3717 30.2015 18.2336 30.5729 17.999C31.3064 17.5331 32.0764 17.1275 32.8755 16.7861C33.8224 16.5132 34.8185 16.4565 35.7902 16.6202C38.1136 16.869 40.4266 17.1282 42.75 17.3666C43.7888 17.5381 44.8529 17.4707 45.8617 17.1696C46.5814 16.8547 47.2465 16.4279 47.8325 15.9049C48.9554 14.7537 50.3093 13.8528 51.8051 13.2614C51.951 13.2382 52.1003 13.2693 52.2247 13.349C52.349 13.4286 52.4397 13.5513 52.4794 13.6934C52.5191 13.8356 52.5051 13.9875 52.4401 14.12C52.375 14.2525 52.2635 14.3565 52.1267 14.4121C50.27 14.9512 49.0149 16.6202 47.5006 17.6569C45.4261 19.0356 43.0301 18.6002 40.6652 18.3514L37.0556 17.9575C35.9206 17.7432 34.7602 17.6978 33.612 17.8227C31.8798 18.1959 30.6144 19.8961 28.7162 19.6058C27.8553 19.4918 26.8907 18.6417 26.0194 18.9631C25.1481 19.2844 24.7229 20.6113 24.4635 21.5029C23.9892 23.2226 22.9612 24.7382 21.5385 25.8154C20.4391 26.6447 18.0223 28.0235 16.788 26.852C16.2572 26.1473 15.9729 25.2876 15.979 24.4055C15.8337 23.3689 15.7922 22.2389 15.6885 21.1608C15.5719 20.0099 15.278 18.8839 14.8172 17.8227C14.3681 16.9001 14.1173 15.8937 14.0808 14.8683C14.0808 12.7327 14.9417 10.7527 14.7446 8.65868Z" fill="white"/>
<path d="M55.2384 35.7051C54.7612 36.7418 55.3421 37.8717 55.9022 38.8151L56.0059 38.9913H56.203C56.3586 38.9913 56.5245 38.9913 56.6801 39.0535C56.9385 39.0719 57.1951 39.11 57.4477 39.1675C58.1991 37.1274 58.7379 35.0153 59.0554 32.8647C58.4019 33.186 57.7485 33.5074 57.1158 33.9013C56.3054 34.2753 55.6443 34.9106 55.2384 35.7051Z" fill="white"/>
<path d="M39.8354 26.6965C39.7532 26.7127 39.6686 26.7127 39.5865 26.6965H39.4724C39.0471 26.6965 38.6114 26.8002 38.1966 26.8624H38.0513C36.9415 27.2252 35.9769 28.0235 34.8774 28.4692C34.0198 28.6869 33.1806 28.9711 32.3673 29.3193C31.7525 29.7532 31.2797 30.3591 31.0085 31.0609C30.733 31.7306 30.5212 32.4248 30.3758 33.1342C30.2103 33.5251 30.1463 33.9516 30.1898 34.3739C30.2334 34.7961 30.383 35.2006 30.6247 35.5496C31.662 36.7625 33.4149 37.2497 34.7737 37.9754C35.5077 38.347 36.1824 38.8256 36.7755 39.3956C37.3113 39.9846 37.8168 40.6005 38.2899 41.2409C39.1404 42.2775 40.8311 43.9258 42.2625 42.7751C42.8975 42.1532 43.3618 41.3785 43.6109 40.5256C43.8911 39.7664 44.0792 38.9763 44.171 38.1723C44.3254 36.4722 44.2134 34.7584 43.8391 33.0927C43.5475 31.4484 43.0528 29.8466 42.3662 28.3241C42.2138 27.9481 41.9806 27.6103 41.6831 27.3344C41.3855 27.0585 41.0309 26.8514 40.6444 26.7276C40.3768 26.687 40.1054 26.6765 39.8354 26.6965Z" fill="white"/>
<path d="M66.9073 24.9446C66.7034 23.1191 66.4022 21.3058 66.0049 19.5125C65.9115 19.0149 65.8597 18.3929 65.7248 17.8538C65.59 17.3148 65.3307 16.5165 65.0921 15.8634C64.0274 12.8789 62.636 10.0211 60.9432 7.34211C60.7876 7.10368 60.6216 6.85488 60.4453 6.62682C61.6692 5.2446 62.8828 3.8313 64.086 2.38689C64.8224 1.51609 63.6296 0.313569 62.7895 1.1118C59.4634 4.38073 56.1442 7.65311 52.832 10.929C53.4922 11.6482 54.1087 12.4064 54.6783 13.1992C56.0993 11.6131 57.5099 10.0063 58.9102 8.40987C59.5222 9.5191 60.1341 10.6387 60.715 11.7686C60.7448 11.8453 60.783 11.9183 60.8291 11.9863C60.9521 12.1717 61.1246 12.3189 61.327 12.4114C61.607 12.9815 61.8871 13.5517 62.1464 14.1322C62.7467 15.4434 63.246 16.7985 63.64 18.1856C63.7126 18.4344 63.7748 18.6935 63.8267 18.9527L63.8889 19.2844C63.8889 19.2844 63.8889 19.471 63.8889 19.5229C63.9719 20.4144 64.2727 21.3059 64.4283 22.1974C65.5933 29.1683 64.6695 36.3278 61.773 42.7751C58.9116 49.3545 54.3243 55.0388 48.4963 59.2269C46.1547 60.9194 43.5464 62.2088 40.7793 63.0418C35.8339 64.4777 30.6465 64.8855 25.5372 64.24C20.428 63.5946 15.5053 61.9096 11.0728 59.2891C10.5957 58.9781 10.1186 58.6567 9.66219 58.325C10.6994 57.4335 11.6641 56.5316 12.6598 55.6297C11.7871 55.2485 10.9592 54.7722 10.1912 54.2094C7.69144 56.8115 5.18133 59.3927 2.69196 62.0051C2.59907 62.0789 2.52404 62.1727 2.47246 62.2795C2.42089 62.3863 2.3941 62.5033 2.3941 62.6219C2.3941 62.7405 2.42089 62.8576 2.47246 62.9644C2.52404 63.0712 2.59907 63.165 2.69196 63.2387C2.77277 63.3312 2.87242 63.4052 2.98423 63.456C3.09604 63.5068 3.21743 63.533 3.34023 63.533C3.46304 63.533 3.58442 63.5068 3.69623 63.456C3.80804 63.4052 3.9077 63.3312 3.98851 63.2387L8.06485 59.683C14.0796 63.9681 21.2388 66.358 28.6229 66.5457C29.7535 66.5457 30.9048 66.5457 32.0665 66.5457C32.1019 71.7189 32.5808 76.8797 33.4979 81.9712C29.2936 82.1716 25.0997 82.4653 20.9162 82.8523H20.854H20.7502H20.6776C20.6297 82.8738 20.5872 82.9057 20.5532 82.9456C20.4798 83.0347 20.4397 83.1465 20.4397 83.2618C20.4397 83.3772 20.4798 83.4889 20.5532 83.578C20.5869 83.6312 20.6326 83.6757 20.6866 83.7081C20.7407 83.7405 20.8015 83.7598 20.8643 83.7646C30.1822 85.5617 39.7919 85.1498 48.9216 82.5621C49.0592 82.5442 49.184 82.4725 49.2686 82.3626C49.3532 82.2528 49.3907 82.1138 49.3728 81.9763C49.3549 81.8389 49.2831 81.7141 49.1732 81.6296C49.0633 81.545 48.9243 81.5075 48.7868 81.5254C44.3958 81.4839 40.0117 81.553 35.6346 81.7327C35.6816 81.6139 35.7062 81.4873 35.7072 81.3595C35.7694 76.2903 35.7072 71.2107 35.3649 66.1518C39.5326 65.7342 43.5689 64.4601 47.2205 62.4094C53.6177 58.5537 58.8453 53.0316 62.3434 46.4345C65.886 39.8535 67.4697 32.3964 66.9073 24.9446Z" fill="white"/>
</svg>
