<svg width="282" height="282" viewBox="0 0 282 282" fill="none" xmlns="http://www.w3.org/2000/svg">
<path d="M146.452 33.2198L156.493 21.193L147.695 20.4374L147.865 18.33L159.691 19.3411L159.532 21.1823L149.491 33.209L158.586 33.9859L158.405 36.0933L146.282 35.0609L146.452 33.2198Z" fill="white"/>
<path d="M168.148 20.7886L178.741 23.428L178.231 25.4822L170.029 23.4387L168.807 28.3558L175.937 30.1333L175.427 32.1874L168.296 30.4099L167 35.6464L175.204 37.6897L174.693 39.744L164.1 37.1045L168.148 20.7886Z" fill="white"/>
<path d="M187.168 26.3019L191.164 28.0155C195.127 29.7183 196.859 32.4004 195.551 35.4656C194.49 37.9561 192.225 38.8713 189.868 38.4777L192.035 46.6621L189.187 45.4488L187.35 37.8604L185.298 36.9876L182.843 42.7454L180.58 41.745L187.168 26.3019ZM186.106 35.0718L187.859 35.8274C190.76 37.0727 192.386 36.3703 193.129 34.6141C193.862 32.89 193.256 31.1977 190.356 29.9631L188.603 29.218L186.106 35.0718Z" fill="white"/>
<path d="M199.408 41.2235C202.31 36.615 205.922 34.9122 209.747 37.3281C213.55 39.7334 213.54 43.5969 210.682 48.1308C207.782 52.7394 204.189 54.4209 200.365 52.0049C196.561 49.6103 196.571 45.7362 199.408 41.2235ZM208.461 46.843C209.97 44.4483 211.671 41.0851 208.546 39.1055C205.423 37.1364 203.127 40.1166 201.619 42.5112C200.131 44.8847 198.431 48.2479 201.544 50.2169C204.657 52.1858 206.974 49.2058 208.461 46.843Z" fill="white"/>
<path d="M235.705 59.5188L238.84 63.3078C241.496 66.522 241.974 69.7575 239.201 72.0564C236.427 74.3552 233.356 73.3123 230.679 70.0767L229.128 68.193L224.368 72.1521L222.796 70.2471L235.705 59.5188ZM230.754 66.8412L232.326 68.7464C234.335 71.1836 236.099 71.3008 237.564 70.0875C239.009 68.8847 239.233 67.1073 237.224 64.6807L235.652 62.7756L230.754 66.8412Z" fill="white"/>
<path d="M247.744 75.1961L248.998 77.3247L236.375 84.8068L240.752 92.225L238.936 93.3L233.304 83.7531L247.744 75.1961Z" fill="white"/>
<path d="M258.624 96.3228L259.601 98.8238L246.149 110.489L245.172 107.988L248.391 105.284L246 99.1858L241.804 99.3985L240.846 96.9613L258.624 96.3228ZM248.104 98.9941L250.038 103.933L252.078 102.208L256.71 98.462L250.771 98.8771L248.104 98.9941Z" fill="white"/>
<path d="M251.834 112.937L252.345 115.3C250.485 115.832 249.71 117.311 250.23 119.727C250.708 121.941 251.898 123.207 253.556 122.846C254.831 122.569 255.234 121.6 255.436 119.993L255.915 116.194C256.18 114.065 257.073 112.128 259.453 111.606C262.364 110.968 264.457 113.171 265.159 116.396C265.881 119.716 264.787 122.367 261.418 123.133L260.908 120.802C263.215 120.174 263.405 118.429 263.055 116.8C262.587 114.672 261.387 113.746 260.048 114.044C258.942 114.288 258.412 115.193 258.241 116.63L257.752 120.43C257.403 123.282 256.531 124.751 254.289 125.24C250.942 125.975 248.902 123.58 248.159 120.174C247.361 116.449 248.551 113.661 251.834 112.937Z" fill="white"/>
<path d="M265.339 134.978L265.021 129.327L267.124 129.21L267.9 143.046L265.796 143.163L265.478 137.448L250.836 138.267L250.698 135.798L265.339 134.978Z" fill="white"/>
<path d="M253.024 149.081L252.611 153.178L265.107 154.434L265.521 150.347L267.625 150.56L266.551 161.171L264.447 160.959L264.852 156.892L252.356 155.637L251.951 159.702L249.848 159.489L250.911 148.878L253.024 149.081Z" fill="white"/>
<path d="M257.082 166.769C262.576 168.227 264.935 171.419 263.777 175.795C263.033 178.582 260.983 181.339 256.604 180.328L257.221 178.018C259.664 178.423 261.163 177.337 261.726 175.177C262.693 171.515 259.601 170.078 256.434 169.238C253.449 168.44 250.017 168.152 249.04 171.803C248.391 174.251 249.188 175.666 251.526 176.476L250.91 178.806C246.775 177.55 246.18 174.22 246.978 171.218C248.168 166.706 251.812 165.363 257.082 166.769Z" fill="white"/>
<path d="M240.911 199.581L239.593 201.605C237.904 200.646 236.31 201.135 234.961 203.201C233.729 205.094 233.664 206.83 235.078 207.766C236.172 208.48 237.149 208.085 238.424 207.106L241.464 204.787C243.163 203.477 245.161 202.754 247.211 204.095C249.698 205.723 249.614 208.756 247.806 211.534C245.948 214.376 243.301 215.451 240.389 213.588L241.687 211.587C243.748 212.79 245.128 211.704 246.044 210.3C247.234 208.48 247.042 206.968 245.894 206.212C244.948 205.595 243.929 205.85 242.781 206.734L239.742 209.054C237.468 210.799 235.811 211.215 233.888 209.959C231.019 208.085 231.284 204.946 233.186 202.03C235.28 198.858 238.095 197.751 240.911 199.581Z" fill="white"/>
<path d="M239.02 223.082L237.364 224.912L232.051 220.091L228.256 224.284L233.569 229.105L231.913 230.937L219.469 219.655L221.127 217.824L226.705 222.89L230.498 218.697L224.92 213.631L226.579 211.8L239.02 223.082Z" fill="white"/>
<path d="M220.936 229.798C224.347 234.045 224.781 238.014 221.254 240.856C217.758 243.676 214.103 242.41 210.756 238.227C207.345 233.981 206.93 230.032 210.458 227.2C213.955 224.38 217.598 225.647 220.936 229.798ZM212.69 236.556C214.464 238.76 217.089 241.463 219.957 239.153C222.836 236.843 220.765 233.693 218.99 231.48C217.237 229.297 214.613 226.594 211.744 228.904C208.875 231.213 210.936 234.363 212.69 236.556Z" fill="white"/>
<path d="M209.364 249.084L205.103 251.52C201.49 253.586 198.218 253.5 196.433 250.371C194.648 247.242 196.21 244.39 199.853 242.303L201.968 241.09L198.909 235.704L201.055 234.48L209.364 249.084ZM203.02 242.932L200.874 244.156C198.133 245.719 197.707 247.434 198.653 249.093C199.578 250.722 201.289 251.254 204.03 249.69L206.176 248.466L203.02 242.932Z" fill="white"/>
<path d="M164.493 248.806C170.411 247.614 173.726 251.106 174.64 255.639C175.553 260.173 173.854 264.675 167.925 265.878C162.006 267.07 158.691 263.578 157.778 259.055C156.864 254.532 158.574 249.999 164.493 248.806Z" fill="white"/>
<path d="M136.336 253.053L125.933 264.771L134.71 265.792L134.466 267.889L122.671 266.517L122.884 264.685L133.286 252.968L124.212 251.913L124.456 249.817L136.548 251.223L136.336 253.053Z" fill="white"/>
<path d="M114.256 264.802L103.748 261.833L104.322 259.801L112.45 262.099L113.821 257.225L106.744 255.224L107.318 253.191L114.395 255.192L115.861 249.999L107.732 247.699L108.306 245.666L118.815 248.635L114.256 264.802Z" fill="white"/>
<path d="M95.439 258.715L91.4969 256.884C87.5868 255.065 85.9398 252.329 87.3424 249.296C88.4793 246.837 90.7744 245.997 93.1226 246.465L91.2101 238.217L94.0151 239.525L95.6196 247.167L97.6384 248.104L100.274 242.431L102.515 243.475L95.439 258.715ZM96.7672 249.966L95.0458 249.168C92.1876 247.837 90.5406 248.487 89.7437 250.212C88.9575 251.913 89.51 253.617 92.3683 254.948L94.0896 255.746L96.7672 249.966Z" fill="white"/>
<path d="M83.6554 243.411C80.606 247.934 76.9509 249.519 73.2001 246.987C69.4705 244.464 69.6087 240.601 72.6051 236.152C75.6545 231.629 79.2884 230.064 83.0393 232.596C86.7581 235.119 86.6307 238.982 83.6554 243.411ZM74.7726 237.503C73.1894 239.855 71.3938 243.166 74.4432 245.23C77.5033 247.296 79.8941 244.39 81.4773 242.038C83.0393 239.717 84.8456 236.408 81.7855 234.332C78.7359 232.278 76.3346 235.184 74.7726 237.503Z" fill="white"/>
<path d="M47.9428 224.018L44.9251 220.133C42.3644 216.845 41.9925 213.588 44.8295 211.375C47.6665 209.161 50.7054 210.3 53.2874 213.621L54.7856 215.547L59.6732 211.737L61.1927 213.684L47.9428 224.018ZM53.1174 216.845L51.598 214.897C49.6642 212.407 47.9002 212.226 46.4021 213.396C44.9251 214.546 44.6382 216.324 46.572 218.814L48.0916 220.762L53.1174 216.845Z" fill="white"/>
<path d="M36.3822 207.948L35.1922 205.777L48.049 198.699L43.905 191.152L45.7538 190.131L51.0878 199.848L36.3822 207.948Z" fill="white"/>
<path d="M26.1716 186.533L25.2685 184.011L39.0815 172.762L39.9846 175.284L36.6802 177.891L38.8902 184.064L43.0979 183.98L43.9799 186.449L26.1716 186.533ZM36.7758 184.193L34.9907 179.201L32.8975 180.872L28.148 184.469L34.0982 184.235L36.7758 184.193Z" fill="white"/>
<path d="M33.4717 170.122L33.036 167.748C34.9168 167.28 35.7349 165.822 35.2886 163.395C34.8742 161.171 33.7266 159.862 32.0585 160.182C30.7728 160.416 30.3479 161.373 30.0928 162.969L29.4872 166.748C29.1578 168.866 28.2016 170.771 25.8108 171.218C22.8888 171.761 20.8593 169.505 20.2642 166.247C19.6481 162.906 20.8274 160.299 24.2063 159.639L24.642 161.979C22.3257 162.534 22.0706 164.279 22.3788 165.918C22.7719 168.056 23.9512 169.015 25.3008 168.77C26.4164 168.568 26.9689 167.674 27.1921 166.238L27.7977 162.459C28.244 159.618 29.1471 158.181 31.3997 157.755C34.7681 157.126 36.7337 159.585 37.3712 163.012C38.0512 166.748 36.7656 169.505 33.4717 170.122Z" fill="white"/>
<path d="M20.6463 147.676L20.7951 153.337L18.6807 153.391L18.33 139.534L20.4444 139.481L20.5932 145.196L35.2563 144.824L35.3201 147.293L20.6463 147.676Z" fill="white"/>
<path d="M33.3861 133.957L33.9174 129.88L21.475 128.241L20.9437 132.318L18.8504 132.041L20.2424 121.462L22.3357 121.738L21.8044 125.783L34.2468 127.422L34.7779 123.378L36.8712 123.654L35.4793 134.233L33.3861 133.957Z" fill="white"/>
<path d="M29.8799 116.151C24.4397 114.522 22.1763 111.266 23.4727 106.923C24.3015 104.156 26.4372 101.463 30.783 102.613L30.1029 104.901C27.6697 104.422 26.1503 105.454 25.5128 107.604C24.429 111.234 27.4785 112.766 30.6129 113.703C33.5775 114.586 36.9988 114.991 38.0827 111.372C38.8052 108.945 38.0614 107.509 35.7451 106.625L36.4357 104.316C40.5265 105.699 41.0152 109.052 40.1334 112.021C38.7839 116.481 35.0969 117.705 29.8799 116.151Z" fill="white"/>
<path d="M47.0394 83.8593L48.4207 81.8797C50.0783 82.8908 51.6827 82.4544 53.0958 80.4216C54.3922 78.5591 54.5091 76.8349 53.1171 75.8558C52.044 75.1107 51.0664 75.4727 49.7489 76.4092L46.6356 78.6336C44.893 79.8895 42.8742 80.5494 40.8766 79.1444C38.4328 77.4416 38.624 74.4082 40.5154 71.6943C42.4598 68.9059 45.1481 67.916 47.9957 69.8637L46.6356 71.822C44.6168 70.5556 43.193 71.5985 42.2473 72.9715C41.0041 74.7595 41.1423 76.2709 42.2686 77.0585C43.193 77.7077 44.2237 77.4842 45.403 76.6327L48.5163 74.4082C50.8433 72.7267 52.5115 72.3649 54.3922 73.6846C57.1972 75.6428 56.836 78.7719 54.849 81.6349C52.6496 84.764 49.7913 85.7858 47.0394 83.8593Z" fill="white"/>
<path d="M49.6529 60.4339L51.3636 58.6564L56.5276 63.6374L60.4484 59.5611L55.2844 54.5801L56.9952 52.8027L69.0762 64.4676L67.3656 66.2449L61.9465 61.0192L58.0257 65.0955L63.4448 70.3212L61.734 72.0987L49.6529 60.4339Z" fill="white"/>
<path d="M67.9294 54.2613C64.6461 49.9082 64.338 45.9278 67.9507 43.2031C71.542 40.4891 75.1441 41.8728 78.3742 46.1513C81.6575 50.5044 81.9444 54.4635 78.3423 57.1882C74.7509 59.8916 71.1383 58.5185 67.9294 54.2613ZM76.3872 47.7584C74.6872 45.5021 72.1477 42.7136 69.1938 44.938C66.2506 47.1624 68.2162 50.3766 69.927 52.6329C71.6059 54.868 74.1559 57.6565 77.0991 55.4215C80.0425 53.2183 78.0661 50.0041 76.3872 47.7584Z" fill="white"/>
<path d="M80.096 35.3482L84.4312 33.0386C88.1075 31.0802 91.3801 31.2719 93.059 34.4542C94.7485 37.6365 93.1015 40.4356 89.3933 42.4045L87.2363 43.5541L90.1371 49.0352L87.9588 50.1953L80.096 35.3482ZM86.2482 41.6915L88.4263 40.5313C91.2102 39.052 91.6884 37.3491 90.7958 35.6568C89.9139 33.9965 88.2244 33.4111 85.4405 34.8905L83.2623 36.0506L86.2482 41.6915Z" fill="white"/>
<path d="M124.924 37.0088C118.974 38.0305 115.765 34.4332 114.989 29.8779C114.214 25.3228 116.052 20.8739 122.002 19.8521C127.952 18.8304 131.161 22.4278 131.937 26.983C132.713 31.5383 130.874 35.9977 124.924 37.0088Z" fill="white"/>
</svg>
