<svg width="241" height="241" viewBox="0 0 241 241" fill="none" xmlns="http://www.w3.org/2000/svg">
<g clip-path="url(#clip0_0_588)">
<path d="M120.5 241C187.05 241 241 187.05 241 120.5C241 53.9497 187.05 0 120.5 0C53.9497 0 0 53.9497 0 120.5C0 187.05 53.9497 241 120.5 241Z" fill="black"/>
</g>
<path d="M116.324 140.026L118.823 139.732V101.953C118.823 94.7499 120.44 91.5894 124.188 86.1504V86.0034H111.252V86.1504C115.148 91.6629 116.618 94.6764 116.691 102.1L116.838 120.181L89.643 86.0034H73.2525V86.1504C76.707 90.1194 78.2505 92.6184 78.618 97.7634V123.856C78.618 131.206 77.0745 134.219 73.179 139.658V139.805H86.409V139.658C82.44 134.219 80.823 131.059 80.823 123.856L80.529 95.3379L116.324 140.026ZM145.808 140.908C156.612 140.908 165.579 132.161 165.579 121.945C165.579 111.728 156.612 102.835 145.808 102.835C135.003 102.835 126.036 111.728 126.036 121.945C126.036 132.161 135.003 140.908 145.808 140.908ZM145.808 139.511C140.589 139.511 138.237 132.382 138.237 121.945C138.237 111.508 140.516 104.231 145.808 104.231C151.026 104.231 153.378 111.508 153.378 121.945C153.378 132.382 151.026 139.511 145.808 139.511Z" fill="white"/>
<defs>
<clipPath id="clip0_0_588">
<rect width="241" height="241" fill="white"/>
</clipPath>
</defs>
</svg>
